# xmcd CD database file
#
# Track frame offsets:
#	150
#	28709
#	61327
#	94435
#	160320
#	179427
#	230410
#
# Disc length: 3474 seconds
#
# Revision: 0
# Processed by: cddbd v1.5.1PL0 Copyright (c) Steve Scherf et al.
# Submitted via: CDex 1.51
#
DISCID=590d9007
DTITLE=Live 1987 Baden Baden - Johnny Guitar Watson
DYEAR=1987
DGENRE=Blues
TTITLE0=Johnny Guitar Watson - Strike On Computers
TTITLE1=Johnny Guitar Watson - Superman Lover
TTITLE2=Johnny Guitar Watson - Ain't That A Bitch
TTITLE3=Johnny Guitar Watson - Gangster Of Love
TTITLE4=Johnny Guitar Watson - Statue Of Liberty
TTITLE5=Johnny Guitar Watson - Nothing Left To Be Desired
TTITLE6=Johnny Guitar Watson - A Real Mother For Ya
EXTD=YEAR: 1987
EXTT0=
EXTT1=
EXTT2=
EXTT3=
EXTT4=
EXTT5=
EXTT6=
PLAYORDER=
